<svg width="190" height="33" viewBox="0 0 190 33" fill="none" xmlns="http://www.w3.org/2000/svg">
<path d="M55.9101 16.582C57.569 16.7096 58.9225 17.0195 59.9707 17.5117C61.028 17.9948 61.789 18.5918 62.2539 19.3027C62.7278 20.0046 62.9648 20.7611 62.9648 21.5723C62.9648 22.7298 62.6549 23.7188 62.0351 24.5391C61.4153 25.3503 60.5267 25.9655 59.3691 26.3848C58.2116 26.7949 56.8353 27 55.2402 27C54.8392 27 54.151 26.9863 53.1758 26.959C52.2096 26.9316 51.2343 26.918 50.25 26.918C48.3268 26.918 46.8912 26.9453 45.9433 27V26.4395C46.5631 26.4121 47.0143 26.3392 47.2968 26.2207C47.5794 26.1022 47.7708 25.8835 47.8711 25.5645C47.9804 25.2454 48.0351 24.735 48.0351 24.0332V10.1426C48.0351 9.4408 47.9804 8.9303 47.8711 8.6113C47.7708 8.2923 47.5794 8.0736 47.2968 7.95508C47.0143 7.83659 46.5631 7.76367 45.9433 7.73633V7.17578C46.8821 7.23047 48.2994 7.25781 50.1953 7.25781C50.9427 7.25781 51.7721 7.2487 52.6836 7.23047C53.595 7.21224 54.2285 7.20312 54.584 7.20312C56.0879 7.20312 57.3548 7.38997 58.3847 7.76367C59.4238 8.1283 60.2031 8.6432 60.7226 9.3086C61.2422 9.9648 61.5019 10.7305 61.5019 11.6055C61.5019 12.2982 61.3014 12.9772 60.9004 13.6426C60.4993 14.3079 59.875 14.9004 59.0273 15.4199C58.1888 15.9303 57.1497 16.2995 55.9101 16.5273V16.582ZM53.6953 16.4727C54.9075 16.4727 55.7552 16.0579 56.2383 15.2285C56.7304 14.3991 56.9765 13.2917 56.9765 11.9062C56.9765 10.5026 56.7578 9.459 56.3203 8.7754C55.8828 8.0827 55.1855 7.73633 54.2285 7.73633C53.7272 7.73633 53.3535 7.80469 53.1074 7.94141C52.8704 8.069 52.7063 8.3014 52.6152 8.6387C52.5332 8.9668 52.4922 9.4681 52.4922 10.1426V16.4727H53.6953ZM52.4922 24.0332C52.4922 24.7077 52.5377 25.2044 52.6289 25.5234C52.7291 25.8424 52.9114 26.0612 53.1758 26.1797C53.4401 26.2982 53.8548 26.3574 54.4199 26.3574C57.0175 26.3574 58.3164 24.7214 58.3164 21.4492C58.3164 19.9818 57.9427 18.8652 57.1953 18.0996C56.457 17.334 55.2812 16.9512 53.6679 16.9512H52.4922V24.0332ZM69.1035 18.3457C69.0761 18.6191 69.0625 19.0566 69.0625 19.6582C69.0625 20.8978 69.2356 21.9277 69.582 22.748C69.9284 23.5592 70.375 24.1562 70.9218 24.5391C71.4778 24.9128 72.0703 25.0996 72.6992 25.0996C74.2396 25.0996 75.4746 24.3522 76.4043 22.8574L76.8965 23.0215C76.6595 23.7871 76.2903 24.5026 75.789 25.168C75.2968 25.8242 74.6679 26.362 73.9023 26.7812C73.1458 27.1914 72.2799 27.3965 71.3047 27.3965C70.0195 27.3965 68.8893 27.123 67.914 26.5762C66.9479 26.0293 66.1914 25.1999 65.6445 24.0879C65.1067 22.9668 64.8379 21.5768 64.8379 19.918C64.8379 18.2227 65.1295 16.7962 65.7129 15.6387C66.2962 14.472 67.1028 13.597 68.1328 13.0137C69.1627 12.4303 70.3522 12.1387 71.7011 12.1387C75.2103 12.1387 76.9648 14.2077 76.9648 18.3457H69.1035ZM73.4375 17.8125C73.4648 16.3542 73.3144 15.1419 72.9863 14.1758C72.6673 13.2096 72.1797 12.7266 71.5234 12.7266C70.858 12.7266 70.3021 13.1413 69.8554 13.9707C69.4179 14.791 69.1491 16.0716 69.0488 17.8125H73.4375ZM86.33 15.1875C86.33 14.4128 86.1432 13.8021 85.7695 13.3555C85.4049 12.9089 84.8307 12.6855 84.0468 12.6855C83.6823 12.6855 83.3177 12.7448 82.9531 12.8633C82.5885 12.9727 82.2877 13.1413 82.0508 13.3691C82.5703 13.5423 82.9759 13.8158 83.2675 14.1895C83.5592 14.554 83.705 15.0143 83.705 15.5703C83.705 15.9531 83.6093 16.2995 83.4179 16.6094C83.2356 16.9102 82.9713 17.1517 82.625 17.334C82.2786 17.5072 81.8821 17.5938 81.4355 17.5938C80.834 17.5938 80.3509 17.3887 79.9863 16.9785C79.6308 16.5684 79.4531 16.0534 79.4531 15.4336C79.4531 14.4674 79.9726 13.6836 81.0117 13.082C82.151 12.4531 83.5729 12.1387 85.2773 12.1387C87.1914 12.1387 88.554 12.5579 89.3652 13.3965C89.7571 13.7884 90.0215 14.276 90.1582 14.8594C90.2949 15.4427 90.3633 16.2585 90.3633 17.3066V24.9219C90.3633 25.3776 90.4043 25.7012 90.4863 25.8926C90.5774 26.0749 90.7324 26.166 90.9511 26.166C91.2519 26.166 91.5983 26.0065 91.9902 25.6875L92.2773 26.166C91.8489 26.5215 91.3841 26.7812 90.8828 26.9453C90.3815 27.1094 89.7799 27.1914 89.0781 27.1914C88.1302 27.1914 87.4466 26.9818 87.0273 26.5625C86.608 26.1432 86.3984 25.5964 86.3984 24.9219C85.9427 25.6784 85.3457 26.248 84.6074 26.6309C83.8691 27.0046 83.0807 27.1914 82.2422 27.1914C81.1758 27.1914 80.319 26.9134 79.6718 26.3574C79.0338 25.7923 78.7148 25.0085 78.7148 24.0059C78.7148 23.0306 79.0338 22.224 79.6718 21.5859C80.3099 20.9479 81.2988 20.3828 82.6386 19.8906C82.7845 19.8359 83.2584 19.6582 84.0605 19.3574C84.8626 19.0475 85.4414 18.7331 85.7968 18.4141C86.1523 18.0951 86.33 17.7441 86.33 17.3613V15.1875ZM86.33 18.5098C86.2116 18.7103 86.0156 18.9199 85.7422 19.1387C85.4778 19.3483 85.095 19.6081 84.5937 19.918C84.0013 20.3281 83.5364 20.793 83.1992 21.3125C82.8619 21.8229 82.6933 22.4609 82.6933 23.2266C82.6933 23.9557 82.8528 24.5026 83.1718 24.8672C83.4909 25.2227 83.9101 25.4004 84.4297 25.4004C85.1679 25.4004 85.8014 25.0176 86.33 24.252V18.5098ZM107.043 23.9512C107.043 24.8171 107.175 25.446 107.439 25.8379C107.713 26.2207 108.178 26.4121 108.834 26.4121V27C108.251 26.9453 107.672 26.918 107.098 26.918C105.457 26.918 104.094 27.0501 103.01 27.3145V24.7852C102.162 26.526 100.658 27.3965 98.498 27.3965C97.1035 27.3965 96.0872 27.0319 95.4492 26.3027C95.1393 25.9564 94.916 25.4961 94.7793 24.9219C94.6517 24.3477 94.5879 23.5957 94.5879 22.666V15.5703C94.5879 14.7135 94.4511 14.0892 94.1777 13.6973C93.9134 13.3053 93.4531 13.1094 92.7968 13.1094V12.5215C93.3893 12.5762 93.9681 12.6035 94.5332 12.6035C96.1647 12.6035 97.5273 12.4759 98.6211 12.2207V23.8145C98.6211 24.5892 98.735 25.1771 98.9629 25.5781C99.1998 25.9701 99.6419 26.166 100.289 26.166C100.781 26.166 101.232 26.0247 101.643 25.7422C102.062 25.4505 102.395 25.0586 102.641 24.5664C102.887 24.0651 103.01 23.5137 103.01 22.9121V15.5703C103.01 14.7135 102.873 14.0892 102.6 13.6973C102.335 13.3053 101.875 13.1094 101.219 13.1094V12.5215C101.811 12.5762 102.39 12.6035 102.955 12.6035C104.587 12.6035 105.949 12.4759 107.043 12.2207V23.9512ZM119.088 12.5488V13.1094H115.779V24.4023C115.779 24.9583 115.88 25.3548 116.08 25.5918C116.281 25.8197 116.59 25.9336 117.01 25.9336C117.803 25.9336 118.436 25.373 118.91 24.252L119.389 24.5117C118.687 26.4349 117.411 27.3965 115.561 27.3965C114.33 27.3965 113.396 27.0775 112.758 26.4395C112.366 26.0566 112.097 25.5736 111.951 24.9902C111.814 24.3978 111.746 23.582 111.746 22.543V13.1094H109.395V12.5488H111.746V8.8301C113.286 8.8301 114.631 8.5293 115.779 7.92773V12.5488H119.088ZM128.781 12.5215C129.656 12.5762 130.563 12.6035 131.502 12.6035C132.441 12.6035 133.161 12.5762 133.662 12.5215V13.082C133.27 13.1823 132.915 13.4147 132.596 13.7793C132.286 14.1439 131.994 14.7135 131.721 15.4883L126.717 29.5703C126.343 30.5456 125.933 31.2109 125.486 31.5664C124.939 32.0312 124.124 32.2637 123.039 32.2637C122.556 32.2637 122.077 32.1816 121.603 32.0176C121.139 31.8626 120.751 31.6165 120.441 31.2793C120.141 30.9421 119.99 30.5228 119.99 30.0215C119.99 29.4473 120.195 28.987 120.605 28.6406C121.016 28.2943 121.558 28.1211 122.232 28.1211C122.861 28.1211 123.367 28.276 123.75 28.5859C124.142 28.8958 124.338 29.3288 124.338 29.8848C124.338 30.2676 124.21 30.623 123.955 30.9512C123.709 31.2884 123.367 31.5391 122.93 31.7031C123.066 31.7214 123.281 31.7305 123.572 31.7305C124.739 31.7305 125.591 30.9922 126.129 29.5156L126.58 28.1758L120.633 14.6816C120.341 14.0345 120.049 13.6107 119.758 13.4102C119.475 13.2096 119.188 13.1094 118.896 13.1094V12.5215C120.127 12.6309 121.408 12.6855 122.738 12.6855C123.841 12.6855 125.14 12.6309 126.635 12.5215V13.1094C126.234 13.1094 125.919 13.123 125.691 13.1504C125.464 13.1777 125.268 13.2461 125.103 13.3555C124.949 13.4648 124.871 13.6426 124.871 13.8887C124.871 14.1074 124.935 14.3717 125.062 14.6816L128.494 22.9531L130.408 17.5664C130.709 16.6732 130.859 15.9258 130.859 15.3242C130.859 14.6133 130.677 14.0755 130.312 13.7109C129.948 13.3372 129.437 13.1276 128.781 13.082V12.5215ZM140.32 14.7363C141.168 13.0046 142.699 12.1387 144.914 12.1387C145.68 12.1387 146.304 12.2298 146.787 12.4121C147.279 12.5944 147.68 12.8633 147.99 13.2188C148.3 13.5742 148.523 14.0345 148.66 14.5996C148.797 15.1647 148.865 15.9212 148.865 16.8691V24.4023C148.865 24.9219 148.924 25.3275 149.043 25.6191C149.161 25.9108 149.348 26.1159 149.603 26.2344C149.859 26.3529 150.21 26.4121 150.656 26.4121V27C148.797 26.9271 147.566 26.8906 146.965 26.8906C146.391 26.8906 145.174 26.9271 143.314 27V26.4121C143.697 26.4121 143.998 26.3529 144.217 26.2344C144.436 26.1159 144.59 25.9108 144.682 25.6191C144.782 25.3275 144.832 24.9219 144.832 24.4023V15.6934C144.832 14.9277 144.704 14.349 144.449 13.957C144.203 13.5651 143.752 13.3691 143.096 13.3691C142.585 13.3691 142.116 13.5104 141.687 13.793C141.268 14.0755 140.936 14.4674 140.689 14.9688C140.443 15.4609 140.32 16.0078 140.32 16.6094V24.4023C140.32 24.9219 140.37 25.3275 140.471 25.6191C140.571 25.9108 140.73 26.1159 140.949 26.2344C141.168 26.3529 141.464 26.4121 141.838 26.4121V27C140.124 26.9271 138.967 26.8906 138.365 26.8906C137.791 26.8906 136.501 26.9271 134.496 27V26.4121C134.943 26.4121 135.294 26.3529 135.549 26.2344C135.813 26.1159 136 25.9108 136.109 25.6191C136.228 25.3275 136.287 24.9219 136.287 24.4023V15.5703C136.287 14.7044 136.155 14.0801 135.891 13.6973C135.626 13.3053 135.161 13.1094 134.496 13.1094V12.5215C135.089 12.5762 135.667 12.6035 136.232 12.6035C137.882 12.6035 139.245 12.4759 140.32 12.2207V14.7363ZM156.33 18.3457C156.303 18.6191 156.289 19.0566 156.289 19.6582C156.289 20.8978 156.462 21.9277 156.809 22.748C157.155 23.5592 157.602 24.1562 158.148 24.5391C158.704 24.9128 159.297 25.0996 159.926 25.0996C161.466 25.0996 162.701 24.3522 163.631 22.8574L164.123 23.0215C163.886 23.7871 163.517 24.5026 163.016 25.168C162.523 25.8242 161.895 26.362 161.129 26.7812C160.372 27.1914 159.506 27.3965 158.531 27.3965C157.246 27.3965 156.116 27.123 155.141 26.5762C154.174 26.0293 153.418 25.1999 152.871 24.0879C152.333 22.9668 152.064 21.5768 152.064 19.918C152.064 18.2227 152.356 16.7962 152.939 15.6387C153.523 14.472 154.329 13.597 155.359 13.0137C156.389 12.4303 157.579 12.1387 158.928 12.1387C162.437 12.1387 164.191 14.2077 164.191 18.3457H156.33ZM160.664 17.8125C160.691 16.3542 160.541 15.1419 160.213 14.1758C159.894 13.2096 159.406 12.7266 158.75 12.7266C158.085 12.7266 157.529 13.1413 157.082 13.9707C156.645 14.791 156.376 16.0716 156.275 17.8125H160.664ZM167.117 21.5996C167.299 23.2129 167.691 24.4753 168.293 25.3867C168.904 26.2982 169.765 26.7539 170.877 26.7539C171.424 26.7539 171.889 26.5898 172.271 26.2617C172.663 25.9245 172.859 25.4232 172.859 24.7578C172.859 24.2383 172.741 23.7734 172.504 23.3633C172.276 22.9531 171.984 22.5885 171.629 22.2695C171.273 21.9505 170.74 21.513 170.029 20.957C169.163 20.2552 168.512 19.7038 168.074 19.3027C167.646 18.9017 167.277 18.4277 166.967 17.8809C166.657 17.3249 166.502 16.696 166.502 15.9941C166.502 15.1921 166.721 14.4993 167.158 13.916C167.596 13.3327 168.184 12.8906 168.922 12.5898C169.66 12.2891 170.462 12.1387 171.328 12.1387C172.039 12.1387 172.691 12.2253 173.283 12.3984C173.876 12.5716 174.34 12.7721 174.678 13C174.86 13.1276 175.024 13.1914 175.17 13.1914C175.516 13.1914 175.735 12.8496 175.826 12.166H176.441C176.368 13.1048 176.332 14.7454 176.332 17.0879H175.717C175.553 15.8665 175.184 14.8411 174.609 14.0117C174.044 13.1732 173.219 12.7539 172.135 12.7539C171.579 12.7539 171.123 12.9134 170.768 13.2324C170.412 13.5514 170.234 13.9889 170.234 14.5449C170.234 15.1738 170.444 15.7161 170.863 16.1719C171.283 16.6276 171.788 17.0651 172.381 17.4844C172.973 17.9036 173.406 18.2181 173.68 18.4277C174.445 19.002 175.051 19.5033 175.498 19.9316C175.954 20.36 176.323 20.8477 176.605 21.3945C176.888 21.9323 177.029 22.5521 177.029 23.2539C177.029 24.0742 176.788 24.7988 176.305 25.4277C175.831 26.0566 175.188 26.5443 174.377 26.8906C173.566 27.2279 172.677 27.3965 171.711 27.3965C170.717 27.3965 169.852 27.2005 169.113 26.8086C168.557 26.526 168.12 26.3301 167.801 26.2207C167.746 26.2025 167.7 26.1934 167.664 26.1934C167.363 26.1934 167.145 26.526 167.008 27.1914H166.393C166.465 26.125 166.502 24.2611 166.502 21.5996H167.117ZM180.051 21.5996C180.233 23.2129 180.625 24.4753 181.227 25.3867C181.837 26.2982 182.699 26.7539 183.811 26.7539C184.357 26.7539 184.822 26.5898 185.205 26.2617C185.597 25.9245 185.793 25.4232 185.793 24.7578C185.793 24.2383 185.674 23.7734 185.437 23.3633C185.21 22.9531 184.918 22.5885 184.562 22.2695C184.207 21.9505 183.674 21.513 182.963 20.957C182.097 20.2552 181.445 19.7038 181.008 19.3027C180.579 18.9017 180.21 18.4277 179.9 17.8809C179.59 17.3249 179.436 16.696 179.436 15.9941C179.436 15.1921 179.654 14.4993 180.092 13.916C180.529 13.3327 181.117 12.8906 181.855 12.5898C182.594 12.2891 183.396 12.1387 184.262 12.1387C184.973 12.1387 185.624 12.2253 186.217 12.3984C186.809 12.5716 187.274 12.7721 187.611 13C187.794 13.1276 187.958 13.1914 188.103 13.1914C188.45 13.1914 188.669 12.8496 188.76 12.166H189.375C189.302 13.1048 189.266 14.7454 189.266 17.0879H188.65C188.486 15.8665 188.117 14.8411 187.543 14.0117C186.978 13.1732 186.153 12.7539 185.068 12.7539C184.512 12.7539 184.057 12.9134 183.701 13.2324C183.346 13.5514 183.168 13.9889 183.168 14.5449C183.168 15.1738 183.378 15.7161 183.797 16.1719C184.216 16.6276 184.722 17.0651 185.314 17.4844C185.907 17.9036 186.34 18.2181 186.613 18.4277C187.379 19.002 187.985 19.5033 188.432 19.9316C188.887 20.36 189.256 20.8477 189.539 21.3945C189.822 21.9323 189.963 22.5521 189.963 23.2539C189.963 24.0742 189.721 24.7988 189.238 25.4277C188.764 26.0566 188.122 26.5443 187.311 26.8906C186.499 27.2279 185.611 27.3965 184.645 27.3965C183.651 27.3965 182.785 27.2005 182.047 26.8086C181.491 26.526 181.053 26.3301 180.734 26.2207C180.68 26.2025 180.634 26.1934 180.598 26.1934C180.297 26.1934 180.078 26.526 179.941 27.1914H179.326C179.399 26.125 179.436 24.2611 179.436 21.5996H180.051Z" fill="#141414"/>
<path d="M16.5 31.75C24.9223 31.75 31.75 24.9223 31.75 16.5C31.75 8.07766 24.9223 1.25 16.5 1.25C8.07766 1.25 1.25 8.07766 1.25 16.5C1.25 24.9223 8.07766 31.75 16.5 31.75Z" stroke="#7A9CA5" stroke-width="2.5"/>
<path d="M24.766 12.1845C24.8915 13.4891 24.4194 14.7972 23.4533 15.8212L17.6714 21.9677L9.70743 22.7342L9.03713 15.7699L14.8292 9.6306C15.7952 8.6066 17.176 7.95071 18.6678 7.80713L23.8855 7.93206L24.766 12.1845Z" stroke="#7A9CA5" stroke-width="2.5" stroke-linecap="round" stroke-linejoin="round"/>
<path d="M20 12L5 27" stroke="#7A9CA5" stroke-width="2.5" stroke-linecap="round" stroke-linejoin="round"/>
<path d="M21 18H14" stroke="#7A9CA5" stroke-width="2.5" stroke-linecap="round" stroke-linejoin="round"/>
<path d="M20 12H13" stroke="#7A9CA5" stroke-width="2.5" stroke-linecap="round" stroke-linejoin="round"/>
</svg>
